<svg xmlns="http://www.w3.org/2000/svg" xmlns:xlink="http://www.w3.org/1999/xlink" id="Layer_1" data-name="Layer 1" viewBox="0 0 448.287 171"><defs><style>.cls-1{fill:#f9f9f9}.cls-2{fill:url(#linear-gradient)}.cls-3{fill:none}.cls-4{fill:url(#linear-gradient-2)}.cls-5{fill:#fff}.cls-6{fill:url(#linear-gradient-3)}</style><linearGradient id="linear-gradient" x1="-410.56" x2="147.477" y1="5405.54" y2="5405.54" gradientTransform="matrix(1, 0, 0, -1, 214.34, 9179.04004)" gradientUnits="userSpaceOnUse"><stop offset=".249" stop-color="#93278f"/><stop offset="1" stop-color="#d4145a"/></linearGradient><linearGradient id="linear-gradient-2" x1="50.66" x2="113.66" y1="5447.04" y2="5447.04" gradientTransform="matrix(1, 0, 0, -1, 214.34, 9179.04004)" gradientUnits="userSpaceOnUse"><stop offset="0" stop-color="#d4145a"/><stop offset="1" stop-color="#d4145a"/></linearGradient><linearGradient id="linear-gradient-3" x1="108.66" x2="175.66" y1="5360.54" y2="5360.54" xlink:href="#linear-gradient-2"/></defs><title>bottom most gradient vector</title><path d="M251.54973,3671H1v171H449.28662C435.31876,3745.301,352.11732,3671,251.54973,3671Z" class="cls-1" transform="translate(-1 -3671)"/><path d="M201.73278,3705H1v137H360.15355A160.11208,160.11208,0,0,0,201.73278,3705Z" class="cls-2" transform="translate(-1 -3671)"/><line x1="264" x2="327" y1="61" y2="61" class="cls-3"/><path d="M265,3735h63c3.86072,0,3.8671-6,0-6H265C261.13928,3729,261.1329,3735,265,3735Z" class="cls-4" transform="translate(-1 -3671)"/><path d="M328,3834h70c3.86072,0,3.8671-6,0-6H328C324.13928,3828,324.1329,3834,328,3834Z" class="cls-5" transform="translate(-1 -3671)"/><path d="M323,3823h67c5.79108,0,5.80066-9,0-9H323C317.20892,3814,317.19934,3823,323,3823Z" class="cls-6" transform="translate(-1 -3671)"/></svg>